<?xml version="1.0" encoding="UTF-8"?>
<svg xmlns="http://www.w3.org/2000/svg" xmlns:xlink="http://www.w3.org/1999/xlink" width="854pt" height="480pt" viewBox="0 0 854 480" version="1.1">
<defs>
<g>
<symbol overflow="visible" id="glyph0-0">
<path style="stroke:none;" d="M 0.359375 1.28125 L 0.359375 -5.09375 L 3.96875 -5.09375 L 3.96875 1.28125 Z M 0.765625 0.875 L 3.5625 0.875 L 3.5625 -4.6875 L 0.765625 -4.6875 Z "/>
</symbol>
<symbol overflow="visible" id="glyph0-1">
<path style="stroke:none;" d="M 4.90625 0 L 0.28125 0 L 2.296875 -5.265625 L 2.890625 -5.265625 Z M 3.953125 -0.375 L 2.40625 -4.40625 L 0.859375 -0.375 Z "/>
</symbol>
<symbol overflow="visible" id="glyph0-2">
<path style="stroke:none;" d="M 1.375 0 L 1.375 -0.375 L 2.046875 -0.375 L 2.046875 -4.84375 L 0.5 -4.84375 L 0.5 -4.015625 L 0.078125 -4.015625 L 0.078125 -5.265625 L 4.75 -5.265625 L 4.75 -4.015625 L 4.3125 -4.015625 L 4.3125 -4.84375 L 2.765625 -4.84375 L 2.765625 -0.375 L 3.4375 -0.375 L 3.4375 0 Z "/>
</symbol>
<symbol overflow="visible" id="glyph0-3">
<path style="stroke:none;" d=""/>
</symbol>
<symbol overflow="visible" id="glyph0-4">
<path style="stroke:none;" d="M 3.453125 -3.75 L 3.453125 -2.8125 L 3.078125 -2.8125 C 3.066406 -3 3.015625 -3.140625 2.921875 -3.234375 C 2.828125 -3.328125 2.691406 -3.375 2.515625 -3.375 C 2.203125 -3.375 1.957031 -3.257812 1.78125 -3.03125 C 1.613281 -2.8125 1.53125 -2.5 1.53125 -2.09375 L 1.53125 -0.375 L 2.28125 -0.375 L 2.28125 0 L 0.296875 0 L 0.296875 -0.375 L 0.875 -0.375 L 0.875 -3.375 L 0.265625 -3.375 L 0.265625 -3.75 L 1.53125 -3.75 L 1.53125 -3.078125 C 1.65625 -3.335938 1.816406 -3.53125 2.015625 -3.65625 C 2.210938 -3.78125 2.457031 -3.84375 2.75 -3.84375 C 2.851562 -3.84375 2.960938 -3.832031 3.078125 -3.8125 C 3.191406 -3.800781 3.316406 -3.78125 3.453125 -3.75 Z "/>
</symbol>
<symbol overflow="visible" id="glyph0-5">
<path style="stroke:none;" d="M 0.703125 -4.90625 C 0.703125 -5.019531 0.738281 -5.113281 0.8125 -5.1875 C 0.894531 -5.269531 0.992188 -5.3125 1.109375 -5.3125 C 1.210938 -5.3125 1.300781 -5.269531 1.375 -5.1875 C 1.457031 -5.113281 1.5 -5.019531 1.5 -4.90625 C 1.5 -4.800781 1.457031 -4.707031 1.375 -4.625 C 1.300781 -4.550781 1.210938 -4.515625 1.109375 -4.515625 C 0.992188 -4.515625 0.894531 -4.550781 0.8125 -4.625 C 0.738281 -4.707031 0.703125 -4.800781 0.703125 -4.90625 Z M 1.53125 -0.375 L 2.140625 -0.375 L 2.140625 0 L 0.265625 0 L 0.265625 -0.375 L 0.875 -0.375 L 0.875 -3.375 L 0.265625 -3.375 L 0.265625 -3.75 L 1.53125 -3.75 Z "/>
</symbol>
<symbol overflow="visible" id="glyph0-6">
<path style="stroke:none;" d="M 0.40625 -0.203125 L 0.40625 -1.078125 L 0.78125 -1.078125 C 0.789062 -0.796875 0.878906 -0.585938 1.046875 -0.453125 C 1.210938 -0.316406 1.457031 -0.25 1.78125 -0.25 C 2.070312 -0.25 2.289062 -0.300781 2.4375 -0.40625 C 2.59375 -0.519531 2.671875 -0.679688 2.671875 -0.890625 C 2.671875 -1.054688 2.613281 -1.1875 2.5 -1.28125 C 2.394531 -1.382812 2.160156 -1.492188 1.796875 -1.609375 L 1.328125 -1.765625 C 1.003906 -1.867188 0.769531 -2 0.625 -2.15625 C 0.476562 -2.3125 0.40625 -2.507812 0.40625 -2.75 C 0.40625 -3.09375 0.53125 -3.359375 0.78125 -3.546875 C 1.039062 -3.742188 1.390625 -3.84375 1.828125 -3.84375 C 2.023438 -3.84375 2.234375 -3.816406 2.453125 -3.765625 C 2.671875 -3.710938 2.898438 -3.640625 3.140625 -3.546875 L 3.140625 -2.734375 L 2.765625 -2.734375 C 2.753906 -2.972656 2.664062 -3.160156 2.5 -3.296875 C 2.34375 -3.429688 2.128906 -3.5 1.859375 -3.5 C 1.578125 -3.5 1.367188 -3.453125 1.234375 -3.359375 C 1.097656 -3.265625 1.03125 -3.117188 1.03125 -2.921875 C 1.03125 -2.765625 1.082031 -2.640625 1.1875 -2.546875 C 1.289062 -2.453125 1.5 -2.351562 1.8125 -2.25 L 2.328125 -2.09375 C 2.679688 -1.976562 2.9375 -1.835938 3.09375 -1.671875 C 3.25 -1.515625 3.328125 -1.304688 3.328125 -1.046875 C 3.328125 -0.679688 3.191406 -0.394531 2.921875 -0.1875 C 2.648438 0.0078125 2.28125 0.109375 1.8125 0.109375 C 1.5625 0.109375 1.320312 0.0820312 1.09375 0.03125 C 0.863281 -0.0195312 0.632812 -0.0976562 0.40625 -0.203125 Z "/>
</symbol>
<symbol overflow="visible" id="glyph0-7">
<path style="stroke:none;" d="M 0.296875 0 L 0.296875 -0.375 L 0.875 -0.375 L 0.875 -3.375 L 0.265625 -3.375 L 0.265625 -3.75 L 1.53125 -3.75 L 1.53125 -3.078125 C 1.644531 -3.335938 1.796875 -3.53125 1.984375 -3.65625 C 2.179688 -3.78125 2.410156 -3.84375 2.671875 -3.84375 C 3.078125 -3.84375 3.378906 -3.722656 3.578125 -3.484375 C 3.773438 -3.253906 3.875 -2.882812 3.875 -2.375 L 3.875 -0.375 L 4.453125 -0.375 L 4.453125 0 L 2.65625 0 L 2.65625 -0.375 L 3.21875 -0.375 L 3.21875 -2.171875 C 3.21875 -2.628906 3.160156 -2.941406 3.046875 -3.109375 C 2.929688 -3.285156 2.734375 -3.375 2.453125 -3.375 C 2.148438 -3.375 1.921875 -3.265625 1.765625 -3.046875 C 1.609375 -2.828125 1.53125 -2.507812 1.53125 -2.09375 L 1.53125 -0.375 L 2.09375 -0.375 L 2.09375 0 Z "/>
</symbol>
<symbol overflow="visible" id="glyph0-8">
<path style="stroke:none;" d="M 3.796875 -3.375 L 3.796875 -0.078125 C 3.796875 0.453125 3.644531 0.863281 3.34375 1.15625 C 3.050781 1.457031 2.628906 1.609375 2.078125 1.609375 C 1.828125 1.609375 1.585938 1.582031 1.359375 1.53125 C 1.140625 1.488281 0.925781 1.421875 0.71875 1.328125 L 0.71875 0.546875 L 1.0625 0.546875 C 1.101562 0.796875 1.203125 0.972656 1.359375 1.078125 C 1.515625 1.191406 1.738281 1.25 2.03125 1.25 C 2.414062 1.25 2.695312 1.140625 2.875 0.921875 C 3.050781 0.710938 3.140625 0.378906 3.140625 -0.078125 L 3.140625 -0.578125 C 3.015625 -0.347656 2.851562 -0.175781 2.65625 -0.0625 C 2.457031 0.0507812 2.210938 0.109375 1.921875 0.109375 C 1.460938 0.109375 1.085938 -0.0703125 0.796875 -0.4375 C 0.503906 -0.8125 0.359375 -1.289062 0.359375 -1.875 C 0.359375 -2.457031 0.503906 -2.929688 0.796875 -3.296875 C 1.085938 -3.660156 1.460938 -3.84375 1.921875 -3.84375 C 2.210938 -3.84375 2.457031 -3.785156 2.65625 -3.671875 C 2.851562 -3.566406 3.015625 -3.394531 3.140625 -3.15625 L 3.140625 -3.75 L 4.40625 -3.75 L 4.40625 -3.375 Z M 3.140625 -2.0625 C 3.140625 -2.507812 3.050781 -2.847656 2.875 -3.078125 C 2.707031 -3.316406 2.457031 -3.4375 2.125 -3.4375 C 1.789062 -3.4375 1.539062 -3.304688 1.375 -3.046875 C 1.207031 -2.785156 1.125 -2.394531 1.125 -1.875 C 1.125 -1.351562 1.207031 -0.957031 1.375 -0.6875 C 1.539062 -0.425781 1.789062 -0.296875 2.125 -0.296875 C 2.457031 -0.296875 2.707031 -0.414062 2.875 -0.65625 C 3.050781 -0.894531 3.140625 -1.238281 3.140625 -1.6875 Z "/>
</symbol>
</g>
</defs>
<g id="surface22">
<g style="fill:rgb(60.392157%,20.392157%,7.058824%);fill-opacity:1;">
  <use xlink:href="#glyph0-1" x="30" y="26.704102"/>
</g>
<g style="fill:rgb(60.392157%,20.392157%,7.058824%);fill-opacity:1;">
  <use xlink:href="#glyph0-2" x="35" y="26.704102"/>
  <use xlink:href="#glyph0-3" x="40" y="26.704102"/>
  <use xlink:href="#glyph0-4" x="42" y="26.704102"/>
  <use xlink:href="#glyph0-5" x="45" y="26.704102"/>
  <use xlink:href="#glyph0-6" x="47" y="26.704102"/>
  <use xlink:href="#glyph0-5" x="51" y="26.704102"/>
  <use xlink:href="#glyph0-7" x="53" y="26.704102"/>
  <use xlink:href="#glyph0-8" x="58" y="26.704102"/>
</g>
</g>
</svg>
