<?xml version="1.0" encoding="UTF-8"?>
<svg xmlns="http://www.w3.org/2000/svg" xmlns:xlink="http://www.w3.org/1999/xlink" width="854pt" height="480pt" viewBox="0 0 854 480" version="1.1">
<defs>
<g>
<symbol overflow="visible" id="glyph0-0">
<path style="stroke:none;" d="M 0.546875 1.96875 L 0.546875 -7.828125 L 6.109375 -7.828125 L 6.109375 1.96875 Z M 1.171875 1.34375 L 5.484375 1.34375 L 5.484375 -7.203125 L 1.171875 -7.203125 Z "/>
</symbol>
<symbol overflow="visible" id="glyph0-1">
<path style="stroke:none;" d="M 2.125 0 L 2.125 -0.578125 L 3.15625 -0.578125 L 3.15625 -7.453125 L 0.78125 -7.453125 L 0.78125 -6.1875 L 0.109375 -6.1875 L 0.109375 -8.09375 L 7.296875 -8.09375 L 7.296875 -6.1875 L 6.640625 -6.1875 L 6.640625 -7.453125 L 4.25 -7.453125 L 4.25 -0.578125 L 5.28125 -0.578125 L 5.28125 0 Z "/>
</symbol>
<symbol overflow="visible" id="glyph0-2">
<path style="stroke:none;" d="M 0.453125 0 L 0.453125 -0.578125 L 1.359375 -0.578125 L 1.359375 -7.859375 L 0.40625 -7.859375 L 0.40625 -8.4375 L 2.359375 -8.4375 L 2.359375 -4.734375 C 2.535156 -5.128906 2.769531 -5.425781 3.0625 -5.625 C 3.363281 -5.820312 3.707031 -5.921875 4.09375 -5.921875 C 4.738281 -5.921875 5.207031 -5.738281 5.5 -5.375 C 5.800781 -5.007812 5.953125 -4.441406 5.953125 -3.671875 L 5.953125 -0.578125 L 6.84375 -0.578125 L 6.84375 0 L 4.09375 0 L 4.09375 -0.578125 L 4.953125 -0.578125 L 4.953125 -3.359375 C 4.953125 -4.054688 4.863281 -4.535156 4.6875 -4.796875 C 4.519531 -5.054688 4.21875 -5.1875 3.78125 -5.1875 C 3.3125 -5.1875 2.957031 -5.015625 2.71875 -4.671875 C 2.476562 -4.335938 2.359375 -3.851562 2.359375 -3.21875 L 2.359375 -0.578125 L 3.21875 -0.578125 L 3.21875 0 Z "/>
</symbol>
<symbol overflow="visible" id="glyph0-3">
<path style="stroke:none;" d="M 6.015625 -2.78125 L 1.71875 -2.78125 L 1.71875 -2.734375 C 1.71875 -1.953125 1.863281 -1.363281 2.15625 -0.96875 C 2.445312 -0.570312 2.878906 -0.375 3.453125 -0.375 C 3.890625 -0.375 4.25 -0.488281 4.53125 -0.71875 C 4.8125 -0.945312 5.007812 -1.289062 5.125 -1.75 L 5.921875 -1.75 C 5.765625 -1.113281 5.472656 -0.632812 5.046875 -0.3125 C 4.617188 0 4.054688 0.15625 3.359375 0.15625 C 2.515625 0.15625 1.832031 -0.117188 1.3125 -0.671875 C 0.800781 -1.234375 0.546875 -1.972656 0.546875 -2.890625 C 0.546875 -3.796875 0.796875 -4.523438 1.296875 -5.078125 C 1.804688 -5.640625 2.46875 -5.921875 3.28125 -5.921875 C 4.15625 -5.921875 4.828125 -5.648438 5.296875 -5.109375 C 5.765625 -4.578125 6.003906 -3.800781 6.015625 -2.78125 Z M 4.84375 -3.359375 C 4.820312 -4.023438 4.679688 -4.53125 4.421875 -4.875 C 4.160156 -5.21875 3.78125 -5.390625 3.28125 -5.390625 C 2.820312 -5.390625 2.460938 -5.21875 2.203125 -4.875 C 1.941406 -4.53125 1.78125 -4.023438 1.71875 -3.359375 Z "/>
</symbol>
<symbol overflow="visible" id="glyph0-4">
<path style="stroke:none;" d=""/>
</symbol>
<symbol overflow="visible" id="glyph0-5">
<path style="stroke:none;" d="M 1.03125 -0.390625 L 1.03125 -2.234375 L 1.65625 -2.234375 C 1.675781 -1.617188 1.851562 -1.160156 2.1875 -0.859375 C 2.53125 -0.566406 3.046875 -0.421875 3.734375 -0.421875 C 4.378906 -0.421875 4.867188 -0.546875 5.203125 -0.796875 C 5.546875 -1.054688 5.71875 -1.429688 5.71875 -1.921875 C 5.71875 -2.304688 5.613281 -2.601562 5.40625 -2.8125 C 5.195312 -3.03125 4.765625 -3.238281 4.109375 -3.4375 L 3.046875 -3.75 C 2.265625 -3.988281 1.71875 -4.28125 1.40625 -4.625 C 1.09375 -4.976562 0.9375 -5.460938 0.9375 -6.078125 C 0.9375 -6.765625 1.175781 -7.296875 1.65625 -7.671875 C 2.144531 -8.054688 2.832031 -8.25 3.71875 -8.25 C 4.09375 -8.25 4.503906 -8.207031 4.953125 -8.125 C 5.398438 -8.039062 5.878906 -7.921875 6.390625 -7.765625 L 6.390625 -6.046875 L 5.78125 -6.046875 C 5.71875 -6.617188 5.523438 -7.03125 5.203125 -7.28125 C 4.878906 -7.539062 4.394531 -7.671875 3.75 -7.671875 C 3.175781 -7.671875 2.738281 -7.550781 2.4375 -7.3125 C 2.132812 -7.082031 1.984375 -6.742188 1.984375 -6.296875 C 1.984375 -5.910156 2.09375 -5.609375 2.3125 -5.390625 C 2.539062 -5.171875 3.019531 -4.953125 3.75 -4.734375 L 4.75 -4.4375 C 5.488281 -4.207031 6.015625 -3.921875 6.328125 -3.578125 C 6.640625 -3.242188 6.796875 -2.789062 6.796875 -2.21875 C 6.796875 -1.425781 6.539062 -0.832031 6.03125 -0.4375 C 5.53125 -0.0390625 4.785156 0.15625 3.796875 0.15625 C 3.347656 0.15625 2.894531 0.109375 2.4375 0.015625 C 1.976562 -0.0664062 1.507812 -0.203125 1.03125 -0.390625 Z "/>
</symbol>
<symbol overflow="visible" id="glyph0-6">
<path style="stroke:none;" d="M 1.203125 -5.1875 L 0.3125 -5.1875 L 0.3125 -5.765625 L 1.203125 -5.765625 L 1.203125 -7.5625 L 2.203125 -7.5625 L 2.203125 -5.765625 L 4.078125 -5.765625 L 4.078125 -5.1875 L 2.203125 -5.1875 L 2.203125 -1.53125 C 2.203125 -1.039062 2.25 -0.722656 2.34375 -0.578125 C 2.4375 -0.441406 2.609375 -0.375 2.859375 -0.375 C 3.117188 -0.375 3.304688 -0.453125 3.421875 -0.609375 C 3.546875 -0.765625 3.613281 -1.015625 3.625 -1.359375 L 4.375 -1.359375 C 4.34375 -0.828125 4.195312 -0.441406 3.9375 -0.203125 C 3.6875 0.0351562 3.300781 0.15625 2.78125 0.15625 C 2.207031 0.15625 1.800781 0.03125 1.5625 -0.21875 C 1.320312 -0.476562 1.203125 -0.914062 1.203125 -1.53125 Z "/>
</symbol>
<symbol overflow="visible" id="glyph0-7">
<path style="stroke:none;" d="M 5.3125 -5.78125 L 5.3125 -4.328125 L 4.734375 -4.328125 C 4.710938 -4.617188 4.628906 -4.832031 4.484375 -4.96875 C 4.347656 -5.113281 4.144531 -5.1875 3.875 -5.1875 C 3.382812 -5.1875 3.007812 -5.015625 2.75 -4.671875 C 2.488281 -4.335938 2.359375 -3.851562 2.359375 -3.21875 L 2.359375 -0.578125 L 3.515625 -0.578125 L 3.515625 0 L 0.453125 0 L 0.453125 -0.578125 L 1.359375 -0.578125 L 1.359375 -5.203125 L 0.40625 -5.203125 L 0.40625 -5.765625 L 2.359375 -5.765625 L 2.359375 -4.734375 C 2.546875 -5.140625 2.789062 -5.4375 3.09375 -5.625 C 3.40625 -5.820312 3.785156 -5.921875 4.234375 -5.921875 C 4.390625 -5.921875 4.554688 -5.90625 4.734375 -5.875 C 4.921875 -5.851562 5.113281 -5.820312 5.3125 -5.78125 Z "/>
</symbol>
<symbol overflow="visible" id="glyph0-8">
<path style="stroke:none;" d="M 0.625 -0.3125 L 0.625 -1.671875 L 1.203125 -1.671875 C 1.210938 -1.234375 1.34375 -0.90625 1.59375 -0.6875 C 1.851562 -0.476562 2.234375 -0.375 2.734375 -0.375 C 3.179688 -0.375 3.519531 -0.457031 3.75 -0.625 C 3.988281 -0.800781 4.109375 -1.046875 4.109375 -1.359375 C 4.109375 -1.617188 4.019531 -1.828125 3.84375 -1.984375 C 3.675781 -2.140625 3.316406 -2.304688 2.765625 -2.484375 L 2.046875 -2.71875 C 1.546875 -2.882812 1.1875 -3.082031 0.96875 -3.3125 C 0.75 -3.550781 0.640625 -3.859375 0.640625 -4.234375 C 0.640625 -4.753906 0.832031 -5.164062 1.21875 -5.46875 C 1.601562 -5.769531 2.140625 -5.921875 2.828125 -5.921875 C 3.128906 -5.921875 3.445312 -5.878906 3.78125 -5.796875 C 4.113281 -5.722656 4.460938 -5.609375 4.828125 -5.453125 L 4.828125 -4.203125 L 4.25 -4.203125 C 4.226562 -4.566406 4.09375 -4.851562 3.84375 -5.0625 C 3.601562 -5.28125 3.273438 -5.390625 2.859375 -5.390625 C 2.429688 -5.390625 2.109375 -5.3125 1.890625 -5.15625 C 1.679688 -5.007812 1.578125 -4.789062 1.578125 -4.5 C 1.578125 -4.257812 1.65625 -4.0625 1.8125 -3.90625 C 1.976562 -3.757812 2.304688 -3.613281 2.796875 -3.46875 L 3.59375 -3.21875 C 4.132812 -3.050781 4.523438 -2.835938 4.765625 -2.578125 C 5.003906 -2.328125 5.125 -2 5.125 -1.59375 C 5.125 -1.050781 4.914062 -0.625 4.5 -0.3125 C 4.082031 0 3.507812 0.15625 2.78125 0.15625 C 2.40625 0.15625 2.039062 0.113281 1.6875 0.03125 C 1.332031 -0.0390625 0.976562 -0.15625 0.625 -0.3125 Z "/>
</symbol>
<symbol overflow="visible" id="glyph0-9">
<path style="stroke:none;" d="M 0.484375 -3.40625 L 3.265625 -3.40625 L 3.265625 -2.5625 L 0.484375 -2.5625 Z "/>
</symbol>
<symbol overflow="visible" id="glyph0-10">
<path style="stroke:none;" d="M 4.421875 -1.8125 L 4.421875 -3.03125 L 3.140625 -3.03125 C 2.640625 -3.03125 2.269531 -2.921875 2.03125 -2.703125 C 1.789062 -2.492188 1.671875 -2.171875 1.671875 -1.734375 C 1.671875 -1.328125 1.789062 -1.003906 2.03125 -0.765625 C 2.28125 -0.535156 2.613281 -0.421875 3.03125 -0.421875 C 3.445312 -0.421875 3.78125 -0.546875 4.03125 -0.796875 C 4.289062 -1.054688 4.421875 -1.394531 4.421875 -1.8125 Z M 5.421875 -3.609375 L 5.421875 -0.578125 L 6.3125 -0.578125 L 6.3125 0 L 4.421875 0 L 4.421875 -0.625 C 4.203125 -0.351562 3.945312 -0.15625 3.65625 -0.03125 C 3.363281 0.09375 3.023438 0.15625 2.640625 0.15625 C 2.003906 0.15625 1.492188 -0.0078125 1.109375 -0.34375 C 0.734375 -0.6875 0.546875 -1.148438 0.546875 -1.734375 C 0.546875 -2.328125 0.757812 -2.785156 1.1875 -3.109375 C 1.625 -3.441406 2.234375 -3.609375 3.015625 -3.609375 L 4.421875 -3.609375 L 4.421875 -4.015625 C 4.421875 -4.453125 4.285156 -4.789062 4.015625 -5.03125 C 3.753906 -5.269531 3.382812 -5.390625 2.90625 -5.390625 C 2.507812 -5.390625 2.191406 -5.296875 1.953125 -5.109375 C 1.710938 -4.929688 1.566406 -4.664062 1.515625 -4.3125 L 1 -4.3125 L 1 -5.484375 C 1.34375 -5.628906 1.675781 -5.738281 2 -5.8125 C 2.332031 -5.882812 2.65625 -5.921875 2.96875 -5.921875 C 3.769531 -5.921875 4.378906 -5.722656 4.796875 -5.328125 C 5.210938 -4.929688 5.421875 -4.359375 5.421875 -3.609375 Z "/>
</symbol>
<symbol overflow="visible" id="glyph0-11">
<path style="stroke:none;" d="M 1.078125 -7.5625 C 1.078125 -7.726562 1.132812 -7.867188 1.25 -7.984375 C 1.375 -8.109375 1.523438 -8.171875 1.703125 -8.171875 C 1.867188 -8.171875 2.007812 -8.109375 2.125 -7.984375 C 2.25 -7.867188 2.3125 -7.726562 2.3125 -7.5625 C 2.3125 -7.382812 2.25 -7.234375 2.125 -7.109375 C 2.007812 -6.992188 1.867188 -6.9375 1.703125 -6.9375 C 1.523438 -6.9375 1.375 -6.992188 1.25 -7.109375 C 1.132812 -7.234375 1.078125 -7.382812 1.078125 -7.5625 Z M 2.359375 -0.578125 L 3.296875 -0.578125 L 3.296875 0 L 0.40625 0 L 0.40625 -0.578125 L 1.359375 -0.578125 L 1.359375 -5.1875 L 0.40625 -5.1875 L 0.40625 -5.765625 L 2.359375 -5.765625 Z "/>
</symbol>
<symbol overflow="visible" id="glyph0-12">
<path style="stroke:none;" d="M 0.453125 0 L 0.453125 -0.578125 L 1.359375 -0.578125 L 1.359375 -5.1875 L 0.40625 -5.1875 L 0.40625 -5.765625 L 2.359375 -5.765625 L 2.359375 -4.734375 C 2.535156 -5.128906 2.769531 -5.425781 3.0625 -5.625 C 3.363281 -5.820312 3.707031 -5.921875 4.09375 -5.921875 C 4.738281 -5.921875 5.207031 -5.738281 5.5 -5.375 C 5.800781 -5.007812 5.953125 -4.441406 5.953125 -3.671875 L 5.953125 -0.578125 L 6.84375 -0.578125 L 6.84375 0 L 4.09375 0 L 4.09375 -0.578125 L 4.953125 -0.578125 L 4.953125 -3.359375 C 4.953125 -4.054688 4.863281 -4.535156 4.6875 -4.796875 C 4.519531 -5.066406 4.21875 -5.203125 3.78125 -5.203125 C 3.3125 -5.203125 2.957031 -5.03125 2.71875 -4.6875 C 2.476562 -4.351562 2.359375 -3.863281 2.359375 -3.21875 L 2.359375 -0.578125 L 3.21875 -0.578125 L 3.21875 0 Z "/>
</symbol>
<symbol overflow="visible" id="glyph0-13">
<path style="stroke:none;" d="M 7.828125 -2.140625 C 7.585938 -1.390625 7.1875 -0.816406 6.625 -0.421875 C 6.0625 -0.0351562 5.351562 0.15625 4.5 0.15625 C 3.96875 0.15625 3.472656 0.0664062 3.015625 -0.109375 C 2.566406 -0.296875 2.171875 -0.5625 1.828125 -0.90625 C 1.421875 -1.3125 1.117188 -1.769531 0.921875 -2.28125 C 0.722656 -2.800781 0.625 -3.390625 0.625 -4.046875 C 0.625 -5.296875 0.984375 -6.304688 1.703125 -7.078125 C 2.429688 -7.859375 3.394531 -8.25 4.59375 -8.25 C 5.03125 -8.25 5.5 -8.1875 6 -8.0625 C 6.5 -7.945312 7.035156 -7.773438 7.609375 -7.546875 L 7.609375 -5.671875 L 7 -5.671875 C 6.863281 -6.359375 6.59375 -6.863281 6.1875 -7.1875 C 5.789062 -7.507812 5.226562 -7.671875 4.5 -7.671875 C 3.632812 -7.671875 2.976562 -7.363281 2.53125 -6.75 C 2.082031 -6.132812 1.859375 -5.234375 1.859375 -4.046875 C 1.859375 -2.859375 2.082031 -1.957031 2.53125 -1.34375 C 2.976562 -0.726562 3.632812 -0.421875 4.5 -0.421875 C 5.101562 -0.421875 5.597656 -0.5625 5.984375 -0.84375 C 6.378906 -1.132812 6.660156 -1.566406 6.828125 -2.140625 Z "/>
</symbol>
<symbol overflow="visible" id="glyph0-14">
<path style="stroke:none;" d="M 3.9375 -5.765625 L 5.796875 -5.765625 L 5.796875 -0.578125 L 6.75 -0.578125 L 6.75 0 L 4.796875 0 L 4.796875 -1.015625 C 4.617188 -0.628906 4.378906 -0.335938 4.078125 -0.140625 C 3.785156 0.0546875 3.445312 0.15625 3.0625 0.15625 C 2.425781 0.15625 1.957031 -0.0234375 1.65625 -0.390625 C 1.351562 -0.753906 1.203125 -1.320312 1.203125 -2.09375 L 1.203125 -5.1875 L 0.296875 -5.1875 L 0.296875 -5.765625 L 2.203125 -5.765625 L 2.203125 -2.40625 C 2.203125 -1.707031 2.285156 -1.226562 2.453125 -0.96875 C 2.628906 -0.707031 2.9375 -0.578125 3.375 -0.578125 C 3.84375 -0.578125 4.195312 -0.742188 4.4375 -1.078125 C 4.675781 -1.421875 4.796875 -1.914062 4.796875 -2.5625 L 4.796875 -5.1875 L 3.9375 -5.1875 Z "/>
</symbol>
<symbol overflow="visible" id="glyph0-15">
<path style="stroke:none;" d="M 2.75 0 L 0.625 -5.1875 L -0.03125 -5.1875 L -0.03125 -5.765625 L 2.625 -5.765625 L 2.625 -5.1875 L 1.703125 -5.1875 L 3.3125 -1.21875 L 4.9375 -5.1875 L 4.078125 -5.1875 L 4.078125 -5.765625 L 6.25 -5.765625 L 6.25 -5.1875 L 5.59375 -5.1875 L 3.484375 0 Z "/>
</symbol>
</g>
</defs>
<g id="surface17">
<g style="fill:rgb(8.627451%,9.803922%,11.372549%);fill-opacity:1;">
  <use xlink:href="#glyph0-1" x="30" y="30.3125"/>
  <use xlink:href="#glyph0-2" x="37" y="30.3125"/>
  <use xlink:href="#glyph0-3" x="44" y="30.3125"/>
  <use xlink:href="#glyph0-4" x="51" y="30.3125"/>
  <use xlink:href="#glyph0-5" x="55" y="30.3125"/>
  <use xlink:href="#glyph0-6" x="63" y="30.3125"/>
  <use xlink:href="#glyph0-7" x="67" y="30.3125"/>
  <use xlink:href="#glyph0-3" x="72" y="30.3125"/>
  <use xlink:href="#glyph0-8" x="79" y="30.3125"/>
  <use xlink:href="#glyph0-8" x="85" y="30.3125"/>
  <use xlink:href="#glyph0-9" x="91" y="30.3125"/>
  <use xlink:href="#glyph0-5" x="95" y="30.3125"/>
  <use xlink:href="#glyph0-6" x="103" y="30.3125"/>
  <use xlink:href="#glyph0-7" x="107" y="30.3125"/>
  <use xlink:href="#glyph0-10" x="112" y="30.3125"/>
  <use xlink:href="#glyph0-11" x="119" y="30.3125"/>
  <use xlink:href="#glyph0-12" x="123" y="30.3125"/>
  <use xlink:href="#glyph0-4" x="130" y="30.3125"/>
  <use xlink:href="#glyph0-13" x="134" y="30.3125"/>
  <use xlink:href="#glyph0-14" x="143" y="30.3125"/>
  <use xlink:href="#glyph0-7" x="150" y="30.3125"/>
  <use xlink:href="#glyph0-15" x="155" y="30.3125"/>
  <use xlink:href="#glyph0-3" x="161" y="30.3125"/>
</g>
</g>
</svg>
